<?xml version="1.0" standalone="no"?>
<!DOCTYPE svg PUBLIC "-//W3C//DTD SVG 20010904//EN"
 "http://www.w3.org/TR/2001/REC-SVG-20010904/DTD/svg10.dtd">
<svg version="1.0" xmlns="http://www.w3.org/2000/svg"
 width="570.000000pt" height="570.000000pt" viewBox="0 0 570.000000 570.000000"
 preserveAspectRatio="xMidYMid meet">

<g transform="translate(0.000000,570.000000) scale(0.100000,-0.100000)"
fill="#000000" stroke="none">
<path d="M2865 4495 c-22 -9 -60 -31 -85 -50 -136 -105 -189 -129 -469 -210
-221 -63 -268 -85 -348 -159 -88 -82 -125 -150 -131 -241 -4 -61 -1 -81 17
-119 56 -114 202 -204 382 -236 35 -6 69 -12 75 -15 8 -2 7 -21 -2 -67 -8 -37
-14 -130 -14 -225 0 -139 2 -163 15 -163 8 0 59 18 113 41 53 22 133 49 177
60 105 26 314 36 426 20 134 -20 384 -109 384 -138 0 -7 -41 -50 -91 -95 -50
-46 -174 -161 -277 -256 l-186 -172 -428 392 c-952 873 -1147 1045 -1218 1079
-96 45 -207 -1 -250 -103 -31 -76 -13 -224 38 -299 l23 -34 100 -5 c72 -4 107
-10 127 -23 15 -9 56 -57 92 -107 81 -110 137 -161 249 -225 148 -85 235 -146
277 -194 38 -43 40 -48 34 -91 -4 -25 -22 -84 -42 -132 -19 -48 -33 -91 -31
-96 3 -9 347 -319 516 -465 l102 -89 -224 -231 c-277 -288 -341 -358 -473
-522 l-104 -130 42 -3 c209 -16 705 219 1138 539 l30 22 103 -71 c341 -237
610 -381 828 -446 138 -41 270 -59 270 -37 0 15 -162 219 -257 323 -48 53
-188 199 -310 325 l-221 229 91 79 c176 154 293 259 414 372 l123 115 -24 41
c-32 56 -56 140 -56 198 0 45 3 49 58 96 71 61 120 94 247 167 118 68 163 109
255 233 38 50 79 97 92 104 13 7 68 15 123 18 l99 6 23 34 c53 78 70 228 34
306 -37 82 -116 126 -198 110 -82 -15 -94 -25 -761 -632 -189 -172 -348 -313
-352 -313 -5 0 -11 8 -14 18 -10 30 -25 211 -26 293 l0 77 97 12 c193 24 329
74 387 142 87 101 67 278 -43 381 -27 26 -101 72 -181 113 -144 74 -171 96
-283 232 -74 90 -161 161 -247 200 -69 31 -194 40 -255 17z m207 -85 c109 -41
259 -182 349 -327 84 -135 130 -201 169 -243 34 -37 37 -38 16 -10 -28 39
-110 200 -104 204 7 7 245 -113 276 -139 64 -54 101 -165 81 -238 -24 -89
-128 -149 -314 -181 -138 -24 -199 -21 -251 12 -24 15 -43 29 -43 32 0 6 242
118 308 142 39 15 42 17 18 18 -15 0 -105 -26 -200 -57 -171 -57 -173 -57
-282 -55 -60 1 -130 5 -155 10 l-45 8 31 16 c90 48 290 217 357 302 26 33 17
28 -52 -32 -205 -177 -476 -313 -631 -316 -58 -1 -75 4 -161 46 -108 53 -190
120 -215 178 -23 51 -29 44 -12 -11 8 -29 34 -66 77 -111 35 -38 61 -71 58
-75 -3 -3 -40 0 -82 6 -245 36 -387 172 -319 304 50 96 142 172 254 210 121
41 412 128 415 125 7 -7 -125 -110 -192 -150 -40 -23 -70 -44 -68 -47 7 -7
171 75 232 117 32 22 103 86 158 142 56 57 118 111 140 121 52 24 121 24 187
-1z m-1878 -683 c21 -58 -65 -91 -94 -36 -9 16 -8 26 5 45 23 36 76 31 89 -9z
m3402 8 c15 -23 15 -27 0 -50 -20 -30 -49 -32 -76 -5 -24 24 -24 29 -4 58 21
30 59 29 80 -3z m-1478 -236 c58 -13 139 -52 178 -87 l32 -27 7 -139 c6 -131
5 -138 -12 -133 -10 3 -62 22 -116 41 -146 54 -251 69 -442 64 -136 -4 -176
-9 -267 -33 -59 -16 -109 -27 -112 -24 -2 2 -6 17 -8 33 -3 29 -1 30 87 59
143 45 264 59 465 54 96 -3 186 -8 200 -12 14 -5 22 -5 19 -2 -3 4 -39 14 -80
23 -115 26 -393 23 -524 -6 -55 -12 -117 -24 -137 -27 l-38 -6 0 77 0 77 36
15 c50 21 212 54 314 64 100 10 334 4 398 -11z m-1590 -31 c26 -26 0 -88 -36
-88 -23 0 -52 30 -52 55 0 28 18 45 50 45 14 0 31 -5 38 -12z m2725 -9 c31
-50 -38 -105 -75 -59 -22 27 -23 44 -2 65 20 19 63 16 77 -6z m-2395 -255 c28
-19 28 -58 1 -78 -28 -19 -61 -7 -74 29 -8 23 -6 30 14 46 28 23 31 23 59 3z
m2044 -1 c26 -23 23 -59 -7 -79 -23 -15 -27 -15 -50 0 -29 19 -32 51 -8 78 20
22 41 23 65 1z m-1754 -172 c12 -11 22 -22 22 -26 0 -7 -302 -356 -306 -353
-1 2 15 39 37 83 21 44 39 90 39 102 0 20 162 213 178 213 4 -1 17 -9 30 -19z
m1515 -63 c65 -70 81 -95 117 -182 22 -56 44 -107 47 -115 7 -16 -46 42 -185
200 -56 64 -102 122 -102 130 0 14 29 49 41 49 4 0 41 -37 82 -82z m-1419 -25
c366 -326 1007 -931 1310 -1236 189 -191 426 -452 426 -469 0 -13 -39 -9 -130
12 -382 92 -973 478 -1630 1064 -230 205 -341 309 -338 317 6 17 302 349 311
349 5 0 28 -17 51 -37z m1417 -128 c79 -91 147 -172 151 -179 9 -16 -73 -95
-386 -370 l-189 -167 -41 38 c-121 113 -296 288 -294 295 6 14 593 547 605
548 6 0 76 -74 154 -165z m-1068 -956 c86 -66 157 -125 157 -130 0 -12 -293
-204 -418 -273 -192 -107 -376 -183 -521 -214 -63 -14 -91 -16 -91 -8 0 30
678 746 706 746 5 0 80 -54 167 -121z"/>
<path d="M3175 3280 c27 -12 43 -12 25 0 -8 5 -22 9 -30 9 -10 0 -8 -3 5 -9z"/>
</g>
</svg>
