<?xml version="1.0" standalone="no"?>
<!DOCTYPE svg PUBLIC "-//W3C//DTD SVG 20010904//EN"
 "http://www.w3.org/TR/2001/REC-SVG-20010904/DTD/svg10.dtd">
<svg version="1.0" xmlns="http://www.w3.org/2000/svg"
 width="416.000000pt" height="416.000000pt" viewBox="0 0 416.000000 416.000000"
 preserveAspectRatio="xMidYMid meet">

<g transform="translate(0.000000,416.000000) scale(0.100000,-0.100000)"
fill="#000000" stroke="none">
<path d="M154 3494 c-14 -24 -25 -46 -23 -48 2 -2 869 -548 1926 -1214 l1922
-1210 27 45 c14 25 22 48 18 53 -7 5 -2339 1474 -3806 2396 l-37 24 -27 -46z"/>
<path d="M613 3350 l77 -50 1535 0 1535 0 0 -967 0 -968 43 -25 c23 -14 44
-26 47 -28 3 -1 4 468 2 1043 l-2 1045 -1658 0 -1657 0 78 -50z"/>
<path d="M310 2205 l0 -1045 1657 0 c911 0 1653 3 1650 7 -4 3 -215 138 -469
298 l-463 293 -65 -67 c-36 -36 -106 -110 -155 -163 l-90 -96 -439 530 c-421
508 -439 529 -456 511 -10 -10 -239 -286 -510 -613 -485 -586 -493 -595 -531
-598 l-39 -3 0 968 0 968 -45 27 -45 28 0 -1045z"/>
<path d="M2415 3068 c-141 -49 -188 -228 -89 -338 46 -50 90 -70 158 -70 174
0 269 184 171 331 -46 71 -157 106 -240 77z"/>
<path d="M2901 1996 l-52 -53 246 -156 c158 -100 237 -146 222 -127 -24 28
-359 390 -362 390 0 0 -24 -24 -54 -54z"/>
<path d="M1305 976 c-48 -18 -93 -68 -101 -114 -10 -55 1 -140 22 -169 40 -54
71 -68 142 -68 55 0 73 4 101 24 95 68 92 258 -5 313 -44 25 -111 31 -159 14z
m134 -81 c23 -22 26 -34 26 -91 0 -61 -2 -67 -33 -95 -36 -32 -69 -36 -111
-14 -38 19 -55 63 -49 127 5 43 11 57 38 81 27 24 39 28 68 23 20 -3 47 -17
61 -31z"/>
<path d="M2765 981 c-108 -28 -158 -160 -102 -271 43 -87 161 -114 265 -61
l42 21 0 73 0 72 -75 1 -75 0 0 -28 c0 -26 3 -28 40 -28 36 0 40 -3 40 -25 0
-17 -9 -29 -30 -40 -45 -23 -85 -19 -122 14 -31 27 -33 34 -33 94 0 55 4 69
24 91 13 14 37 28 53 31 37 8 85 -11 94 -37 5 -16 11 -18 37 -12 42 9 44 11
27 41 -32 56 -111 83 -185 64z"/>
<path d="M850 806 l0 -176 35 0 34 0 3 109 3 110 68 -110 c65 -104 70 -109
103 -109 l34 0 0 175 0 175 -30 0 -29 0 -3 -117 -3 -117 -70 115 c-68 110 -72
114 -108 117 l-37 3 0 -175z"/>
<path d="M1740 805 l0 -175 35 0 35 0 0 175 0 175 -35 0 -35 0 0 -175z"/>
<path d="M1878 805 l3 -175 29 0 30 0 1 133 c0 148 -1 149 49 -45 l23 -88 33
0 c28 0 35 4 41 28 3 15 19 74 34 132 l27 105 1 -132 1 -133 35 0 35 0 0 175
0 175 -55 0 -54 0 -11 -42 c-6 -24 -21 -79 -32 -122 l-21 -80 -19 70 c-10 38
-25 93 -34 122 l-15 52 -52 0 -52 0 3 -175z"/>
<path d="M2332 823 c-34 -87 -64 -166 -68 -176 -6 -16 -2 -18 31 -15 34 3 40
7 50 38 l12 35 72 3 72 3 16 -41 c15 -37 19 -40 54 -40 l37 0 -70 175 -70 175
-38 0 -37 0 -61 -157z m125 7 c18 -49 19 -60 7 -61 -51 -3 -74 -2 -75 5 -3 11
34 116 41 116 3 0 15 -27 27 -60z"/>
<path d="M3040 805 l0 -175 135 0 135 0 0 25 0 25 -100 0 -100 0 0 50 0 50 90
0 90 0 0 30 0 30 -90 0 -90 0 0 40 0 40 95 0 95 0 0 30 0 30 -130 0 -130 0 0
-175z"/>
</g>
</svg>
